<?xml version="1.0" encoding="utf-8"?>
<!-- Generator: Adobe Illustrator 26.1.0, SVG Export Plug-In . SVG Version: 6.00 Build 0)  -->
<svg version="1.1" id="Calque_1" xmlns="http://www.w3.org/2000/svg" xmlns:xlink="http://www.w3.org/1999/xlink" x="0px" y="0px"
	 viewBox="0 0 143 149" style="enable-background:new 0 0 143 149;" xml:space="preserve">
<style type="text/css">
	.st0{fill:#394A91;}
	.st1{fill:#BDCCFD;}
	.st2{fill:#8C9FFF;}
</style>
<g>
	<g>
		<path class="st0" d="M143,81.8V6.6c0-3.5-2.8-6.3-6.3-6.3H34.5l44.1,56.9c0,3.3-2.7,6-6,6H21.2"/>
	</g>
	<g>
		<path class="st1" d="M56.1,4.8l78.7,62.8c0,0-13.9,19.1-15.8,19.6c-1.9,0.5-73.1,4.4-73.5,0c-0.5-4.4-4.4-48.9-4.4-48.9L56.1,4.8"
			/>
	</g>
	<g>
		<path class="st2" d="M143,81.8c-0.3,4.1-0.9,8.1-1.9,11.9c-7.7,31.3-35.9,54.6-69.6,54.6C32,148.3,0,116.2,0,76.7V6.6
			c0-3.5,2.8-6.3,6.3-6.3h36.6c11.8,0,21.4,9.6,21.4,21.4v35.5c0,3.3,2.7,6,6,6h51.4C132.6,63.1,141.6,71.3,143,81.8z"/>
	</g>
</g>
<g>
	<path class="st0" d="M71.5,123.8c-23.2,0-42-18.8-42-42c0-3.1,2.5-5.6,5.6-5.6s5.6,2.5,5.6,5.6c0,17,13.8,30.8,30.8,30.8
		s30.8-13.8,30.8-30.8c0-3.1,2.5-5.6,5.6-5.6s5.6,2.5,5.6,5.6C113.5,104.9,94.6,123.8,71.5,123.8z"/>
</g>
</svg>
