<?xml version="1.0" encoding="UTF-8"?>
<svg version="1.1" xmlns="http://www.w3.org/2000/svg" width="256" height="256">
<path d="M0 0 C12.11761267 10.30650569 18.41878464 23.51954355 19.81640625 39.33984375 C20.18490536 51.88416758 17.16206386 63.44647427 12.51708984 74.96606445 C11.3485107 77.86836734 10.53515625 79.99264725 10.53515625 83.15625 C12.26991431 84.53847046 12.26991431 84.53847046 14.53515625 85.78125 C24.18624482 91.96279495 31.09027755 101.33668758 34.171875 112.453125 C36.104438 126.83305613 35.0155309 140.01163236 26.22265625 152.03125 C17.60665474 162.14810338 7.83826585 168.13519602 -5.46484375 170.15625 C-10.20788038 170.41840995 -14.93846026 170.38962775 -19.6875 170.3515625 C-21.04226979 170.34782439 -22.39704232 170.3449812 -23.7518158 170.34298706 C-27.28799123 170.33541332 -30.82399789 170.31582004 -34.36010742 170.2935791 C-37.98028236 170.27298444 -41.60048584 170.26384623 -45.22070312 170.25390625 C-52.30223156 170.23363276 -59.38329875 170.19447123 -66.46484375 170.15625 C-66.46484375 152.66625 -66.46484375 135.17625 -66.46484375 117.15625 C-56.46484375 120.15625 -56.46484375 120.15625 -51.65234375 121.65625 C-48.03827454 122.4201474 -47.7058587 122.30567927 -44.33984375 120.21875 C-42.16718502 117.28331343 -42.16718502 117.28331343 -42.51513672 113.84057617 C-43.64152089 109.47084261 -45.62201855 107.1764717 -48.78515625 104.14453125 C-49.59048294 103.34126656 -49.59048294 103.34126656 -50.41207886 102.52177429 C-51.54662054 101.39626039 -52.68841021 100.27801097 -53.83691406 99.16674805 C-55.57936142 97.47890385 -57.29674786 95.76844363 -59.01171875 94.05273438 C-60.1222972 92.95691194 -61.23423429 91.86246439 -62.34765625 90.76953125 C-62.85523468 90.26529129 -63.36281311 89.76105133 -63.88577271 89.24153137 C-68.26942082 85.02677906 -72.75362167 81.1797747 -79.06640625 81.125 C-83.03734864 82.32997562 -84.8740476 83.76872999 -87.83984375 86.65625 C-88.57328003 87.3663623 -88.57328003 87.3663623 -89.3215332 88.09082031 C-90.4203931 89.16019984 -91.51254231 90.23650348 -92.59912109 91.31835938 C-94.69770679 93.3856393 -96.83963336 95.40255422 -98.984375 97.421875 C-100.54174191 98.91523163 -102.09773788 100.4100193 -103.65234375 101.90625 C-104.40757324 102.61458984 -105.16280273 103.32292969 -105.94091797 104.05273438 C-109.30750491 107.35370336 -111.23968132 109.3773312 -112.5703125 113.98046875 C-112.72150567 117.30274243 -112.72150567 117.30274243 -110.58984375 120.21875 C-107.2238288 122.30567927 -106.89141296 122.4201474 -103.27734375 121.65625 C-100.89515625 120.91375 -100.89515625 120.91375 -98.46484375 120.15625 C-95.16484375 119.16625 -91.86484375 118.17625 -88.46484375 117.15625 C-88.46484375 134.64625 -88.46484375 152.13625 -88.46484375 170.15625 C-96.20426993 170.21941944 -103.94274497 170.27949352 -111.6822052 170.31150055 C-115.28743693 170.32724529 -118.89245193 170.34823205 -122.49755859 170.38256836 C-125.97946525 170.41551816 -129.46116371 170.4331767 -132.94321442 170.44088173 C-134.89716976 170.44900243 -136.85104306 170.47236272 -138.80487061 170.49613953 C-153.42884753 170.49885487 -166.21561448 167.16908477 -177.21484375 157.15625 C-187.59409474 146.19829976 -189.95460243 133.68563893 -189.7421875 119.1640625 C-189.29188467 107.10670025 -182.98282988 96.94705034 -174.40234375 88.73046875 C-170.88993649 85.87663785 -166.14007515 82.15625 -161.46484375 82.15625 C-161.51125 81.20105469 -161.55765625 80.24585938 -161.60546875 79.26171875 C-161.98048815 65.82798818 -158.89350525 55.41772109 -149.72265625 45.21875 C-140.77988809 36.60994414 -129.38100134 33.90554002 -117.30078125 33.98828125 C-113.18817322 34.23186547 -109.44560692 35.1121154 -105.46484375 36.15625 C-105.24570313 35.57359375 -105.0265625 34.9909375 -104.80078125 34.390625 C-97.32810792 15.07103054 -87.68125185 0.48467311 -68.48828125 -8.59375 C-45.79616354 -17.97550409 -19.52987619 -15.06189013 0 0 Z " fill="#8C9EFE" transform="translate(205.46484375,49.84375)"/>
<path d="M0 0 C17.71503721 -1.12542589 34.54280379 4.55412587 48 16 C58.6812067 25.92223014 64.00845851 38.77630119 65.28125 53.18359375 C65.7030596 67.5426956 62.11022864 84.83465704 54 97 C48.43848129 97.47636135 43.68695768 96.72106628 38.375 95 C37.34403198 94.66887207 37.34403198 94.66887207 36.29223633 94.33105469 C18.77818473 88.38098728 2.79054071 76.54787585 -5.59765625 59.8125 C-12.39220905 43.96514652 -12.9138158 29.84447529 -6.77490234 13.88085938 C-4.80798247 9.10670981 -2.49196502 4.52150354 0 0 Z " fill="#394B92" transform="translate(160,36)"/>
</svg>
